<svg class="logo" width="57" height="31" viewBox="0 0 57 31" fill="none" xmlns="http://www.w3.org/2000/svg">
  <path d="M19.1555 5.1539C27.5509 4.37458 31.8569 17.6755 28.7462 24.0498C27.0756 27.4746 22.3851 29.7113 19.0122 27.2405C17.4324 26.0837 16.6635 23.0468 18.7816 22.1312C20.5082 21.3834 21.4484 23.1552 23.0247 21.9041C23.9229 21.1911 24.8422 19.311 24.4647 18.1787C24.1956 17.9026 23.4686 18.5491 23.2064 18.6854C17.5233 21.642 11.7633 16.6061 13.0914 10.5567C13.7136 7.71553 16.2371 5.42649 19.159 5.1539H19.1555ZM20.1586 10.1094C17.6351 10.368 17.8344 14.7958 20.5396 15.037C23.5629 15.3095 22.9688 9.82284 20.1586 10.1094Z" fill="#FF0000"/>
  <path d="M37.0325 2.22224C43.233 2.19778 46.2598 10.1622 45.9662 15.3589C45.7495 19.252 44.0403 23.8965 39.8252 24.9064C37.7805 25.3957 35.271 24.8994 34.4322 22.7502C33.5933 20.6009 34.8725 18.6439 37.1793 19.2799C37.7281 19.4302 38.151 19.8775 38.7557 19.7482C39.7168 19.549 40.6326 17.2425 40.5207 16.3654C40.4753 16.0194 40.2481 15.7713 39.8881 15.7782C39.3638 15.7887 38.2943 16.3234 37.6232 16.4318C30.4302 17.599 27.1762 7.82078 32.6287 3.72148C33.824 2.82334 35.5261 2.22574 37.0291 2.21875L37.0325 2.22224ZM36.1658 7.65653C34.7048 8.94608 35.3479 12.0284 37.5813 11.7698C40.0733 11.4797 39.252 6.9436 37.1759 7.20571C36.8823 7.24415 36.3859 7.46082 36.1658 7.66002V7.65653Z" fill="#FF0000"/>
  <path d="M9.49284 8.72214C10.4191 9.65523 10.7476 11.8289 10.9748 13.101C11.6528 16.8788 12.2575 21.3276 12.3868 25.1578C12.4602 27.3315 12.6455 30.6025 9.61517 30.62C7.24545 30.634 6.91341 28.7399 6.80506 26.8422C6.66875 24.4518 6.83652 22.037 6.69322 19.6501C6.66526 19.1783 6.6373 18.5493 6.55341 18.0985C6.25632 16.4559 5.4804 17.8573 4.93166 18.427C3.70486 19.699 2.16699 20.1918 0.747958 18.7869C-1.48195 16.5748 1.8734 14.3137 3.03379 12.6397C4.48428 10.5464 4.68001 7.68071 7.98293 8.0197C8.44429 8.06863 9.1573 8.39713 9.48585 8.72563L9.49284 8.72214Z" fill="#FF0000"/>
  <path d="M53.4257 0.0377014C56.7426 -0.402633 56.781 3.11305 56.8929 5.42306C57.0641 8.93874 57.0152 12.5033 56.8544 16.0051C56.7426 18.4653 56.9208 22.9525 53.1461 22.0614C51.381 21.6455 51.402 19.996 51.4859 18.5038C51.6571 15.5228 52.5763 12.2727 52.3317 9.27773C52.2793 8.63819 52.1325 8.7011 51.7515 9.10998C51.4474 9.43499 51.2447 9.8893 50.9651 10.2248C48.9204 12.6886 45.3099 10.2248 47.5538 7.13547C48.2493 6.17791 49.0078 5.3916 49.6544 4.35018C50.6505 2.7461 51.2482 0.331257 53.4257 0.0446908V0.0377014Z" fill="#FF0000"/>
</svg>