<svg class="icon icon-atc" width="20" height="21" viewBox="0 0 20 21" fill="none" xmlns="http://www.w3.org/2000/svg">
  <path d="M9.75 7.5V4.5H6.75V3H9.75V0H11.25V3H14.25V4.5H11.25V7.5H9.75ZM4.4145 19.797C4.07417 19.4567 3.904 19.0436 3.904 18.5578C3.904 18.0718 4.07417 17.6586 4.4145 17.3183C4.75483 16.9779 5.16792 16.8078 5.65375 16.8078C6.13975 16.8078 6.55292 16.9779 6.89325 17.3183C7.23358 17.6586 7.40375 18.0718 7.40375 18.5578C7.40375 19.0436 7.23358 19.4567 6.89325 19.797C6.55292 20.1375 6.13975 20.3078 5.65375 20.3078C5.16792 20.3078 4.75483 20.1375 4.4145 19.797ZM14.1068 19.797C13.7664 19.4567 13.5962 19.0436 13.5962 18.5578C13.5962 18.0718 13.7664 17.6586 14.1068 17.3183C14.4471 16.9779 14.8602 16.8078 15.3462 16.8078C15.8321 16.8078 16.2452 16.9779 16.5855 17.3183C16.9258 17.6586 17.096 18.0718 17.096 18.5578C17.096 19.0436 16.9258 19.4567 16.5855 19.797C16.2452 20.1375 15.8321 20.3078 15.3462 20.3078C14.8602 20.3078 14.4471 20.1375 14.1068 19.797ZM0 2.5V1H2.8615L7.0345 9.80775H13.852C13.9097 9.80775 13.9609 9.79333 14.0057 9.7645C14.0506 9.73567 14.0891 9.69558 14.1212 9.64425L17.8193 3H19.5268L15.4345 10.3923C15.2705 10.6807 15.0536 10.9054 14.7837 11.0662C14.5138 11.2273 14.2179 11.3077 13.8962 11.3077H6.6L5.44225 13.423C5.39092 13.5 5.38933 13.5833 5.4375 13.673C5.4855 13.7628 5.55758 13.8077 5.65375 13.8077H17.096V15.3077H5.65375C4.98708 15.3077 4.48358 15.0227 4.14325 14.4528C3.80292 13.8829 3.79367 13.3063 4.1155 12.723L5.54225 10.1578L1.904 2.5H0Z" fill="#FF0000"/>
</svg>